<svg xmlns="http://www.w3.org/2000/svg" width="35.204" height="35.204" viewBox="0 0 35.204 35.204">
  <path id="Icon_awesome-linkedin" data-name="Icon awesome-linkedin" d="M32.689,2.25H2.507A2.525,2.525,0,0,0,0,4.788V34.916a2.525,2.525,0,0,0,2.507,2.538H32.689A2.532,2.532,0,0,0,35.2,34.916V4.788A2.532,2.532,0,0,0,32.689,2.25ZM10.64,32.425H5.422v-16.8h5.226v16.8ZM8.031,13.33A3.025,3.025,0,1,1,11.056,10.3,3.027,3.027,0,0,1,8.031,13.33ZM30.2,32.425H24.981V24.252c0-1.949-.039-4.456-2.711-4.456-2.719,0-3.135,2.122-3.135,4.314v8.314H13.917v-16.8h5.006v2.295h.071a5.5,5.5,0,0,1,4.943-2.711c5.281,0,6.263,3.481,6.263,8.007Z" transform="translate(0 -2.25)" fill="#e9e9e9"/>
</svg>
