<svg xmlns="http://www.w3.org/2000/svg" width="38.976" height="38.002" viewBox="0 0 38.976 38.002">
  <path id="Icon_awesome-github" data-name="Icon awesome-github" d="M13.036,31.162c0,.157-.181.283-.409.283-.259.024-.44-.1-.44-.283,0-.157.181-.283.409-.283C12.832,30.855,13.036,30.981,13.036,31.162Zm-2.444-.354c-.055.157.1.338.338.385a.369.369,0,0,0,.487-.157c.047-.157-.1-.338-.338-.409A.4.4,0,0,0,10.593,30.808Zm3.473-.134c-.228.055-.385.2-.361.385.024.157.228.259.464.2s.385-.2.361-.361S14.294,30.651,14.066,30.674ZM19.236.563A18.843,18.843,0,0,0,0,19.736a19.7,19.7,0,0,0,13.319,18.8c1.006.181,1.359-.44,1.359-.951,0-.487-.024-3.175-.024-4.825,0,0-5.5,1.179-6.656-2.342,0,0-.9-2.287-2.185-2.876,0,0-1.8-1.234.126-1.21a4.148,4.148,0,0,1,3.033,2.027c1.721,3.033,4.6,2.161,5.729,1.642a4.367,4.367,0,0,1,1.257-2.648c-4.393-.487-8.825-1.124-8.825-8.683A5.955,5.955,0,0,1,8.99,14.039a7.424,7.424,0,0,1,.2-5.336c1.642-.511,5.422,2.122,5.422,2.122a18.564,18.564,0,0,1,9.87,0s3.78-2.64,5.422-2.122a7.421,7.421,0,0,1,.2,5.336,6.108,6.108,0,0,1,2.027,4.628c0,7.583-4.628,8.188-9.021,8.683A4.647,4.647,0,0,1,24.454,31c0,2.648-.024,5.925-.024,6.569,0,.511.361,1.132,1.359.951A19.519,19.519,0,0,0,38.976,19.736C38.976,8.837,30.136.563,19.236.563Zm-11.6,27.1c-.1.079-.079.259.055.409.126.126.306.181.409.079.1-.079.079-.259-.055-.409C7.921,27.618,7.74,27.563,7.638,27.665Zm-.849-.636c-.055.1.024.228.181.306a.234.234,0,0,0,.338-.055c.055-.1-.024-.228-.181-.306C6.97,26.926,6.844,26.95,6.789,27.028Zm2.546,2.8c-.126.1-.079.338.1.487.181.181.409.2.511.079.1-.1.055-.338-.1-.487C9.673,29.724,9.437,29.7,9.335,29.826Zm-.9-1.155c-.126.079-.126.283,0,.464s.338.259.44.181a.358.358,0,0,0,0-.487C8.77,28.647,8.565,28.569,8.44,28.671Z" transform="translate(0 -0.563)" fill="#e9e9e9"/>
</svg>
